<svg width="542" height="590" viewBox="0 0 542 590" fill="none" xmlns="http://www.w3.org/2000/svg">
<path d="M110.017 474.983C110.955 475.921 111.482 477.192 111.482 478.518C111.482 479.845 110.955 481.116 110.017 482.054C109.08 482.992 107.808 483.518 106.482 483.518C105.156 483.518 103.884 482.992 102.946 482.054C69.906 449.014 47.4053 406.918 38.2896 361.09C29.1738 315.262 33.8524 267.76 51.7336 224.591C69.6148 181.422 99.8956 144.525 138.747 118.565C177.598 92.6058 223.274 78.75 270 78.75C316.726 78.75 362.402 92.6058 401.254 118.565C440.105 144.525 470.385 181.422 488.267 224.591C506.148 267.76 510.826 315.262 501.711 361.09C492.595 406.918 470.094 449.014 437.054 482.054C436.116 482.992 434.845 483.518 433.519 483.518C432.192 483.518 430.921 482.992 429.983 482.054C429.045 481.116 428.519 479.845 428.519 478.518C428.519 477.192 429.045 475.921 429.983 474.983C461.625 443.341 483.173 403.027 491.903 359.139C500.633 315.251 496.152 269.76 479.028 228.418C461.904 187.076 432.905 151.741 395.698 126.88C358.491 102.019 314.748 88.7499 270 88.7499C225.252 88.7499 181.509 102.019 144.302 126.88C107.096 151.741 78.0967 187.076 60.9724 228.418C43.8481 269.76 39.3675 315.251 48.0974 359.139C56.8273 403.027 78.3756 443.341 110.017 474.983Z" fill="#FAF7F7"/>
<path d="M117.088 467.912L124.159 460.841" stroke="#54555A" stroke-width="3"/>
<path d="M128.355 453.673C128.355 452.905 128.427 452.205 128.571 451.573C128.723 450.933 128.943 450.385 129.231 449.929C129.519 449.465 129.871 449.109 130.287 448.861C130.703 448.605 131.179 448.477 131.715 448.477C132.267 448.477 132.751 448.609 133.167 448.873C133.583 449.129 133.931 449.493 134.211 449.965C134.499 450.429 134.715 450.989 134.859 451.645C135.003 452.293 135.075 453.009 135.075 453.793C135.075 454.441 134.999 455.053 134.847 455.629C134.695 456.205 134.475 456.709 134.187 457.141C133.899 457.573 133.547 457.917 133.131 458.173C132.715 458.421 132.243 458.545 131.715 458.545C131.163 458.545 130.679 458.417 130.263 458.161C129.847 457.897 129.495 457.545 129.207 457.105C128.927 456.657 128.715 456.141 128.571 455.557C128.427 454.965 128.355 454.337 128.355 453.673ZM131.715 458.005C131.987 458.005 132.239 457.901 132.471 457.693C132.711 457.477 132.915 457.169 133.083 456.769C133.259 456.369 133.395 455.885 133.491 455.317C133.587 454.741 133.635 454.093 133.635 453.373C133.635 451.973 133.475 450.897 133.155 450.145C132.843 449.393 132.363 449.017 131.715 449.017C131.067 449.017 130.583 449.393 130.263 450.145C129.951 450.897 129.795 451.973 129.795 453.373C129.795 454.893 129.959 456.045 130.287 456.829C130.615 457.613 131.091 458.005 131.715 458.005Z" fill="#54555A"/>
<path d="M117.088 467.912L121.331 463.669" stroke="#6D6E73"/>
<path d="M103.376 452.843L108 449.018" stroke="#6D6E73"/>
<path d="M91.1436 436.55L96.106 433.178" stroke="#6D6E73"/>
<path d="M80.4985 419.179L85.7563 416.289" stroke="#6D6E73"/>
<path d="M71.5356 400.883L77.0421 398.5" stroke="#6D6E73"/>
<path d="M64.334 381.825L70.0404 379.971" stroke="#6D6E73"/>
<path d="M64.334 381.825L73.8446 378.735" stroke="#54555A" stroke-width="3"/>
<path d="M81.8521 370.342V377.578L83.2801 377.758C83.3121 377.886 83.3121 378.046 83.2801 378.238C82.7761 378.214 82.0921 378.202 81.2281 378.202C80.5161 378.202 79.8241 378.21 79.1521 378.226C79.1041 378.074 79.1041 377.918 79.1521 377.758L80.5801 377.626C80.6121 377.186 80.6281 376.678 80.6281 376.102V369.514L79.0441 369.79C79.0121 369.638 79.0121 369.446 79.0441 369.214L81.7921 368.398C81.8641 368.478 81.9041 368.558 81.9121 368.638C81.8721 368.846 81.8521 369.214 81.8521 369.742V370.342ZM84.5687 373.558C84.5687 372.79 84.6407 372.09 84.7847 371.458C84.9367 370.818 85.1567 370.27 85.4447 369.814C85.7327 369.35 86.0847 368.994 86.5007 368.746C86.9167 368.49 87.3927 368.362 87.9287 368.362C88.4807 368.362 88.9647 368.494 89.3807 368.758C89.7967 369.014 90.1447 369.378 90.4247 369.85C90.7127 370.314 90.9287 370.874 91.0727 371.53C91.2167 372.178 91.2887 372.894 91.2887 373.678C91.2887 374.326 91.2127 374.938 91.0607 375.514C90.9087 376.09 90.6887 376.594 90.4007 377.026C90.1127 377.458 89.7607 377.802 89.3447 378.058C88.9287 378.306 88.4567 378.43 87.9287 378.43C87.3767 378.43 86.8927 378.302 86.4767 378.046C86.0607 377.782 85.7087 377.43 85.4207 376.99C85.1407 376.542 84.9287 376.026 84.7847 375.442C84.6407 374.85 84.5687 374.222 84.5687 373.558ZM87.9287 377.89C88.2007 377.89 88.4527 377.786 88.6847 377.578C88.9247 377.362 89.1287 377.054 89.2967 376.654C89.4727 376.254 89.6087 375.77 89.7047 375.202C89.8007 374.626 89.8487 373.978 89.8487 373.258C89.8487 371.858 89.6887 370.782 89.3687 370.03C89.0567 369.278 88.5767 368.902 87.9287 368.902C87.2807 368.902 86.7967 369.278 86.4767 370.03C86.1647 370.782 86.0087 371.858 86.0087 373.258C86.0087 374.778 86.1727 375.93 86.5007 376.714C86.8287 377.498 87.3047 377.89 87.9287 377.89Z" fill="#54555A"/>
<path d="M64.334 381.825L70.0404 379.971" stroke="#6D6E73"/>
<path d="M58.958 362.174L64.8135 360.865" stroke="#6D6E73"/>
<path d="M55.4551 342.103L61.4078 341.351" stroke="#6D6E73"/>
<path d="M53.8564 321.793L59.8535 321.604" stroke="#6D6E73"/>
<path d="M54.1768 301.422L60.1649 301.798" stroke="#6D6E73"/>
<path d="M56.4126 281.171L62.3387 282.11" stroke="#6D6E73"/>
<path d="M56.4126 281.171L66.2895 282.735" stroke="#54555A" stroke-width="3"/>
<path d="M77.5395 284.518H71.8635V283.606C73.3835 282.19 74.4395 281.026 75.0315 280.114C75.6235 279.194 75.9195 278.214 75.9195 277.174C75.9195 276.55 75.7915 276.07 75.5355 275.734C75.2795 275.398 74.9155 275.23 74.4435 275.23C74.1155 275.23 73.8435 275.386 73.6275 275.698C73.4115 276.002 73.2315 276.518 73.0875 277.246C72.3595 277.278 71.9195 277.174 71.7675 276.934C72.1115 275.438 73.0155 274.69 74.4795 274.69C75.4075 274.69 76.0995 274.91 76.5555 275.35C77.0195 275.782 77.2515 276.402 77.2515 277.21C77.2515 279.138 75.8475 281.178 73.0395 283.33H76.2555C76.6955 283.306 77.1315 283.25 77.5635 283.162C77.5475 283.674 77.5395 284.126 77.5395 284.518ZM79.0594 279.886C79.0594 279.118 79.1314 278.418 79.2754 277.786C79.4274 277.146 79.6474 276.598 79.9354 276.142C80.2234 275.678 80.5754 275.322 80.9914 275.074C81.4074 274.818 81.8834 274.69 82.4194 274.69C82.9714 274.69 83.4554 274.822 83.8714 275.086C84.2874 275.342 84.6354 275.706 84.9154 276.178C85.2034 276.642 85.4194 277.202 85.5634 277.858C85.7074 278.506 85.7794 279.222 85.7794 280.006C85.7794 280.654 85.7034 281.266 85.5514 281.842C85.3994 282.418 85.1794 282.922 84.8914 283.354C84.6034 283.786 84.2514 284.13 83.8354 284.386C83.4194 284.634 82.9474 284.758 82.4194 284.758C81.8674 284.758 81.3834 284.63 80.9674 284.374C80.5514 284.11 80.1994 283.758 79.9114 283.318C79.6314 282.87 79.4194 282.354 79.2754 281.77C79.1314 281.178 79.0594 280.55 79.0594 279.886ZM82.4194 284.218C82.6914 284.218 82.9434 284.114 83.1754 283.906C83.4154 283.69 83.6194 283.382 83.7874 282.982C83.9634 282.582 84.0994 282.098 84.1954 281.53C84.2914 280.954 84.3394 280.306 84.3394 279.586C84.3394 278.186 84.1794 277.11 83.8594 276.358C83.5474 275.606 83.0674 275.23 82.4194 275.23C81.7714 275.23 81.2874 275.606 80.9674 276.358C80.6554 277.11 80.4994 278.186 80.4994 279.586C80.4994 281.106 80.6634 282.258 80.9914 283.042C81.3194 283.826 81.7954 284.218 82.4194 284.218Z" fill="#54555A"/>
<path d="M56.4126 281.171L62.3387 282.11" stroke="#6D6E73"/>
<path d="M60.5439 261.221L66.3554 262.713" stroke="#6D6E73"/>
<path d="M66.5347 241.748L72.18 243.78" stroke="#6D6E73"/>
<path d="M74.3311 222.925L79.7601 225.48" stroke="#6D6E73"/>
<path d="M83.8643 204.92L89.0287 207.974" stroke="#6D6E73"/>
<path d="M95.0503 187.891L99.9044 191.418" stroke="#6D6E73"/>
<path d="M95.0503 187.891L103.14 193.769" stroke="#54555A" stroke-width="3"/>
<path d="M110.366 197.42C110.854 197.42 111.262 197.22 111.59 196.82C111.918 196.412 112.082 195.824 112.082 195.056C112.082 194.408 111.846 193.876 111.374 193.46C110.902 193.044 110.262 192.836 109.454 192.836C109.414 192.788 109.39 192.696 109.382 192.56C109.382 192.416 109.406 192.308 109.454 192.236H109.814C110.438 192.236 110.926 192.064 111.278 191.72C111.63 191.376 111.806 190.908 111.806 190.316C111.806 189.668 111.666 189.184 111.386 188.864C111.106 188.536 110.766 188.372 110.366 188.372C109.614 188.372 109.154 188.976 108.986 190.184C108.626 190.192 108.358 190.18 108.182 190.148C108.006 190.108 107.862 190.028 107.75 189.908C107.854 189.26 108.142 188.76 108.614 188.408C109.094 188.056 109.706 187.88 110.45 187.88C111.242 187.88 111.874 188.088 112.346 188.504C112.826 188.912 113.066 189.44 113.066 190.088C113.066 190.632 112.902 191.116 112.574 191.54C112.254 191.964 111.77 192.272 111.122 192.464V192.5C111.842 192.62 112.402 192.888 112.802 193.304C113.21 193.72 113.414 194.28 113.414 194.984C113.414 195.88 113.138 196.6 112.586 197.144C112.034 197.68 111.27 197.948 110.294 197.948C109.526 197.948 108.886 197.796 108.374 197.492C107.862 197.18 107.606 196.728 107.606 196.136C107.774 195.952 108.186 195.868 108.842 195.884C108.954 196.46 109.13 196.86 109.37 197.084C109.618 197.308 109.95 197.42 110.366 197.42ZM114.689 193.076C114.689 192.308 114.761 191.608 114.905 190.976C115.057 190.336 115.277 189.788 115.565 189.332C115.853 188.868 116.205 188.512 116.621 188.264C117.037 188.008 117.513 187.88 118.049 187.88C118.601 187.88 119.085 188.012 119.501 188.276C119.917 188.532 120.265 188.896 120.545 189.368C120.833 189.832 121.049 190.392 121.193 191.048C121.337 191.696 121.409 192.412 121.409 193.196C121.409 193.844 121.333 194.456 121.181 195.032C121.029 195.608 120.809 196.112 120.521 196.544C120.233 196.976 119.881 197.32 119.465 197.576C119.049 197.824 118.577 197.948 118.049 197.948C117.497 197.948 117.013 197.82 116.597 197.564C116.181 197.3 115.829 196.948 115.541 196.508C115.261 196.06 115.049 195.544 114.905 194.96C114.761 194.368 114.689 193.74 114.689 193.076ZM118.049 197.408C118.321 197.408 118.573 197.304 118.805 197.096C119.045 196.88 119.249 196.572 119.417 196.172C119.593 195.772 119.729 195.288 119.825 194.72C119.921 194.144 119.969 193.496 119.969 192.776C119.969 191.376 119.809 190.3 119.489 189.548C119.177 188.796 118.697 188.42 118.049 188.42C117.401 188.42 116.917 188.796 116.597 189.548C116.285 190.3 116.129 191.376 116.129 192.776C116.129 194.296 116.293 195.448 116.621 196.232C116.949 197.016 117.425 197.408 118.049 197.408Z" fill="#54555A"/>
<path d="M95.0503 187.891L99.9044 191.418" stroke="#6D6E73"/>
<path d="M107.789 171.991L112.289 175.959" stroke="#6D6E73"/>
<path d="M121.967 157.36L126.074 161.734" stroke="#6D6E73"/>
<path d="M137.459 144.129L141.136 148.87" stroke="#6D6E73"/>
<path d="M154.127 132.414L157.342 137.48" stroke="#6D6E73"/>
<path d="M171.825 122.32L174.549 127.666" stroke="#6D6E73"/>
<path d="M171.825 122.32L176.365 131.23" stroke="#54555A" stroke-width="3"/>
<path d="M182.81 135.965L182.906 134.765L182.882 134.741L182.33 135.689L179.63 139.457H182.81V135.965ZM184.034 133.013V139.457C184.53 139.425 184.966 139.373 185.342 139.301C185.326 139.813 185.318 140.149 185.318 140.309H184.034V142.073L185.246 142.253C185.262 142.349 185.27 142.421 185.27 142.469C185.27 142.533 185.262 142.621 185.246 142.733C184.742 142.709 184.118 142.697 183.374 142.697C182.846 142.697 182.246 142.705 181.574 142.721C181.55 142.649 181.538 142.573 181.538 142.493C181.538 142.413 181.55 142.333 181.574 142.253L182.762 142.121C182.794 141.681 182.81 141.077 182.81 140.309H178.946C178.866 140.029 178.826 139.745 178.826 139.457L183.302 133.001L183.89 132.941C183.938 132.957 183.986 132.981 184.034 133.013ZM186.665 138.053C186.665 137.285 186.737 136.585 186.881 135.953C187.033 135.313 187.253 134.765 187.541 134.309C187.829 133.845 188.181 133.489 188.597 133.241C189.013 132.985 189.489 132.857 190.025 132.857C190.577 132.857 191.061 132.989 191.477 133.253C191.893 133.509 192.241 133.873 192.521 134.345C192.809 134.809 193.025 135.369 193.169 136.025C193.313 136.673 193.385 137.389 193.385 138.173C193.385 138.821 193.309 139.433 193.157 140.009C193.005 140.585 192.785 141.089 192.497 141.521C192.209 141.953 191.857 142.297 191.441 142.553C191.025 142.801 190.553 142.925 190.025 142.925C189.473 142.925 188.989 142.797 188.573 142.541C188.157 142.277 187.805 141.925 187.517 141.485C187.237 141.037 187.025 140.521 186.881 139.937C186.737 139.345 186.665 138.717 186.665 138.053ZM190.025 142.385C190.297 142.385 190.549 142.281 190.781 142.073C191.021 141.857 191.225 141.549 191.393 141.149C191.569 140.749 191.705 140.265 191.801 139.697C191.897 139.121 191.945 138.473 191.945 137.753C191.945 136.353 191.785 135.277 191.465 134.525C191.153 133.773 190.673 133.397 190.025 133.397C189.377 133.397 188.893 133.773 188.573 134.525C188.261 135.277 188.105 136.353 188.105 137.753C188.105 139.273 188.269 140.425 188.597 141.209C188.925 141.993 189.401 142.385 190.025 142.385Z" fill="#54555A"/>
<path d="M171.825 122.32L174.549 127.666" stroke="#6D6E73"/>
<path d="M190.393 113.936L192.602 119.514" stroke="#6D6E73"/>
<path d="M209.668 107.337L211.342 113.098" stroke="#6D6E73"/>
<path d="M229.479 102.58L230.603 108.474" stroke="#6D6E73"/>
<path d="M249.649 99.7097L250.214 105.683" stroke="#6D6E73"/>
<path d="M270 98.75V104.75" stroke="#6D6E73"/>
<path d="M270 98.75V108.75" stroke="#54555A" stroke-width="3"/>
<path d="M265.81 112.386H264.946L264.934 114.582C265.318 114.55 265.586 114.534 265.738 114.534C266.906 114.534 267.762 114.818 268.306 115.386C268.858 115.946 269.134 116.706 269.134 117.666C269.134 118.682 268.87 119.49 268.342 120.09C267.814 120.69 267.038 120.99 266.014 120.99C265.262 120.99 264.642 120.838 264.154 120.534C263.666 120.222 263.422 119.77 263.422 119.178C263.59 118.994 264.002 118.91 264.658 118.926C264.778 119.55 264.954 119.966 265.186 120.174C265.418 120.382 265.742 120.486 266.158 120.486C267.286 120.486 267.85 119.582 267.85 117.774C267.85 116.038 267.006 115.17 265.318 115.17C264.982 115.17 264.606 115.206 264.19 115.278V111.198H268.798C268.798 111.59 268.806 112.042 268.822 112.554C268.446 112.482 268.01 112.43 267.514 112.398L265.81 112.386ZM270.463 116.118C270.463 115.35 270.535 114.65 270.679 114.018C270.831 113.378 271.051 112.83 271.339 112.374C271.627 111.91 271.979 111.554 272.395 111.306C272.811 111.05 273.287 110.922 273.823 110.922C274.375 110.922 274.859 111.054 275.275 111.318C275.691 111.574 276.039 111.938 276.319 112.41C276.607 112.874 276.823 113.434 276.967 114.09C277.111 114.738 277.183 115.454 277.183 116.238C277.183 116.886 277.107 117.498 276.955 118.074C276.803 118.65 276.583 119.154 276.295 119.586C276.007 120.018 275.655 120.362 275.239 120.618C274.823 120.866 274.351 120.99 273.823 120.99C273.271 120.99 272.787 120.862 272.371 120.606C271.955 120.342 271.603 119.99 271.315 119.55C271.035 119.102 270.823 118.586 270.679 118.002C270.535 117.41 270.463 116.782 270.463 116.118ZM273.823 120.45C274.095 120.45 274.347 120.346 274.579 120.138C274.819 119.922 275.023 119.614 275.191 119.214C275.367 118.814 275.503 118.33 275.599 117.762C275.695 117.186 275.743 116.538 275.743 115.818C275.743 114.418 275.583 113.342 275.263 112.59C274.951 111.838 274.471 111.462 273.823 111.462C273.175 111.462 272.691 111.838 272.371 112.59C272.059 113.342 271.903 114.418 271.903 115.818C271.903 117.338 272.067 118.49 272.395 119.274C272.723 120.058 273.199 120.45 273.823 120.45Z" fill="#54555A"/>
<path d="M270 98.75V104.75" stroke="#6D6E73"/>
<path d="M290.351 99.7097L289.786 105.683" stroke="#6D6E73"/>
<path d="M310.521 102.58L309.397 108.474" stroke="#6D6E73"/>
<path d="M330.332 107.337L328.658 113.098" stroke="#6D6E73"/>
<path d="M349.607 113.936L347.398 119.514" stroke="#6D6E73"/>
<path d="M368.176 122.32L365.452 127.666" stroke="#6D6E73"/>
<path d="M368.176 122.32L363.636 131.23" stroke="#54555A" stroke-width="3"/>
<path d="M346.577 138.521C346.577 136.689 346.877 135.289 347.477 134.321C348.077 133.345 348.905 132.857 349.961 132.857C350.657 132.857 351.237 133.017 351.701 133.337C352.173 133.657 352.449 134.109 352.529 134.693C352.185 134.917 351.753 135.041 351.233 135.065C351.129 134.481 350.977 134.061 350.777 133.805C350.577 133.541 350.265 133.409 349.841 133.409C349.209 133.409 348.713 133.793 348.353 134.561C347.993 135.329 347.813 136.417 347.813 137.825H347.837C348.333 137.001 349.073 136.589 350.057 136.589C350.953 136.589 351.629 136.885 352.085 137.477C352.549 138.069 352.781 138.773 352.781 139.589C352.781 140.525 352.513 141.317 351.977 141.965C351.441 142.605 350.745 142.925 349.889 142.925C349.401 142.925 348.961 142.841 348.569 142.673C348.185 142.505 347.869 142.281 347.621 142.001C347.373 141.721 347.169 141.389 347.009 141.005C346.849 140.621 346.737 140.225 346.673 139.817C346.609 139.409 346.577 138.977 346.577 138.521ZM351.401 139.541C351.401 138.877 351.269 138.313 351.005 137.849C350.749 137.385 350.373 137.153 349.877 137.153C349.269 137.153 348.805 137.357 348.485 137.765C348.165 138.165 348.005 138.713 348.005 139.409C348.005 140.441 348.161 141.197 348.473 141.677C348.785 142.149 349.253 142.385 349.877 142.385C350.893 142.385 351.401 141.437 351.401 139.541ZM353.987 138.053C353.987 137.285 354.059 136.585 354.203 135.953C354.355 135.313 354.575 134.765 354.863 134.309C355.151 133.845 355.503 133.489 355.919 133.241C356.335 132.985 356.811 132.857 357.347 132.857C357.899 132.857 358.383 132.989 358.799 133.253C359.215 133.509 359.563 133.873 359.843 134.345C360.131 134.809 360.347 135.369 360.491 136.025C360.635 136.673 360.707 137.389 360.707 138.173C360.707 138.821 360.631 139.433 360.479 140.009C360.327 140.585 360.107 141.089 359.819 141.521C359.531 141.953 359.179 142.297 358.763 142.553C358.347 142.801 357.875 142.925 357.347 142.925C356.795 142.925 356.311 142.797 355.895 142.541C355.479 142.277 355.127 141.925 354.839 141.485C354.559 141.037 354.347 140.521 354.203 139.937C354.059 139.345 353.987 138.717 353.987 138.053ZM357.347 142.385C357.619 142.385 357.871 142.281 358.103 142.073C358.343 141.857 358.547 141.549 358.715 141.149C358.891 140.749 359.027 140.265 359.123 139.697C359.219 139.121 359.267 138.473 359.267 137.753C359.267 136.353 359.107 135.277 358.787 134.525C358.475 133.773 357.995 133.397 357.347 133.397C356.699 133.397 356.215 133.773 355.895 134.525C355.583 135.277 355.427 136.353 355.427 137.753C355.427 139.273 355.591 140.425 355.919 141.209C356.247 141.993 356.723 142.385 357.347 142.385Z" fill="#54555A"/>
<path d="M368.176 122.32L365.452 127.666" stroke="#6D6E73"/>
<path d="M385.873 132.414L382.658 137.48" stroke="#6D6E73"/>
<path d="M402.541 144.129L398.864 148.87" stroke="#6D6E73"/>
<path d="M418.033 157.36L413.926 161.734" stroke="#6D6E73"/>
<path d="M432.212 171.991L427.711 175.959" stroke="#6D6E73"/>
<path d="M444.95 187.891L440.096 191.418" stroke="#6D6E73"/>
<path d="M444.95 187.891L436.86 193.769" stroke="#54555A" stroke-width="3"/>
<path d="M424.49 188.156C424.57 188.42 424.61 188.704 424.61 189.008L421.622 197.708H420.158L423.854 189.344H422.042C420.882 189.392 420.038 189.52 419.51 189.728H419.198V188.156H424.49ZM425.435 193.076C425.435 192.308 425.507 191.608 425.651 190.976C425.803 190.336 426.023 189.788 426.311 189.332C426.599 188.868 426.951 188.512 427.367 188.264C427.783 188.008 428.259 187.88 428.795 187.88C429.347 187.88 429.831 188.012 430.247 188.276C430.663 188.532 431.011 188.896 431.291 189.368C431.579 189.832 431.795 190.392 431.939 191.048C432.083 191.696 432.155 192.412 432.155 193.196C432.155 193.844 432.079 194.456 431.927 195.032C431.775 195.608 431.555 196.112 431.267 196.544C430.979 196.976 430.627 197.32 430.211 197.576C429.795 197.824 429.323 197.948 428.795 197.948C428.243 197.948 427.759 197.82 427.343 197.564C426.927 197.3 426.575 196.948 426.287 196.508C426.007 196.06 425.795 195.544 425.651 194.96C425.507 194.368 425.435 193.74 425.435 193.076ZM428.795 197.408C429.067 197.408 429.319 197.304 429.551 197.096C429.791 196.88 429.995 196.572 430.163 196.172C430.339 195.772 430.475 195.288 430.571 194.72C430.667 194.144 430.715 193.496 430.715 192.776C430.715 191.376 430.555 190.3 430.235 189.548C429.923 188.796 429.443 188.42 428.795 188.42C428.147 188.42 427.663 188.796 427.343 189.548C427.031 190.3 426.875 191.376 426.875 192.776C426.875 194.296 427.039 195.448 427.367 196.232C427.695 197.016 428.171 197.408 428.795 197.408Z" fill="#54555A"/>
<path d="M444.95 187.891L440.096 191.418" stroke="#6D6E73"/>
<path d="M456.136 204.92L450.971 207.974" stroke="#6D6E73"/>
<path d="M465.669 222.925L460.24 225.48" stroke="#6D6E73"/>
<path d="M473.466 241.748L467.82 243.78" stroke="#6D6E73"/>
<path d="M479.456 261.221L473.645 262.713" stroke="#6D6E73"/>
<path d="M483.588 281.171L477.662 282.11" stroke="#6D6E73"/>
<path d="M483.588 281.171L473.711 282.735" stroke="#54555A" stroke-width="3"/>
<path d="M453.893 282.154C453.893 281.602 454.049 281.118 454.361 280.702C454.681 280.286 455.109 279.954 455.645 279.706C455.181 279.402 454.817 279.058 454.553 278.674C454.297 278.29 454.169 277.814 454.169 277.246C454.169 276.55 454.429 275.95 454.949 275.446C455.477 274.942 456.141 274.69 456.941 274.69C457.829 274.69 458.505 274.91 458.969 275.35C459.433 275.79 459.665 276.366 459.665 277.078C459.665 278.086 459.145 278.91 458.105 279.55C458.777 279.918 459.273 280.294 459.593 280.678C459.913 281.054 460.073 281.506 460.073 282.034C460.073 282.754 459.793 283.39 459.233 283.942C458.681 284.486 457.905 284.758 456.905 284.758C455.945 284.758 455.201 284.518 454.673 284.038C454.153 283.558 453.893 282.93 453.893 282.154ZM456.761 280.33C456.513 280.21 456.289 280.09 456.089 279.97C455.817 280.21 455.601 280.534 455.441 280.942C455.281 281.342 455.201 281.758 455.201 282.19C455.201 282.774 455.349 283.266 455.645 283.666C455.941 284.058 456.373 284.254 456.941 284.254C457.573 284.254 458.045 284.098 458.357 283.786C458.669 283.466 458.825 283.026 458.825 282.466C458.825 282.01 458.669 281.642 458.357 281.362C458.053 281.074 457.521 280.73 456.761 280.33ZM455.441 276.934C455.441 277.422 455.609 277.838 455.945 278.182C456.289 278.518 456.865 278.898 457.673 279.322C458.169 278.842 458.417 278.182 458.417 277.342C458.417 276.686 458.293 276.166 458.045 275.782C457.797 275.398 457.429 275.206 456.941 275.206C456.485 275.206 456.121 275.346 455.849 275.626C455.577 275.898 455.441 276.334 455.441 276.934ZM461.393 279.886C461.393 279.118 461.465 278.418 461.609 277.786C461.761 277.146 461.981 276.598 462.269 276.142C462.557 275.678 462.909 275.322 463.325 275.074C463.741 274.818 464.217 274.69 464.753 274.69C465.305 274.69 465.789 274.822 466.205 275.086C466.621 275.342 466.969 275.706 467.249 276.178C467.537 276.642 467.753 277.202 467.897 277.858C468.041 278.506 468.113 279.222 468.113 280.006C468.113 280.654 468.037 281.266 467.885 281.842C467.733 282.418 467.513 282.922 467.225 283.354C466.937 283.786 466.585 284.13 466.169 284.386C465.753 284.634 465.281 284.758 464.753 284.758C464.201 284.758 463.717 284.63 463.301 284.374C462.885 284.11 462.533 283.758 462.245 283.318C461.965 282.87 461.753 282.354 461.609 281.77C461.465 281.178 461.393 280.55 461.393 279.886ZM464.753 284.218C465.025 284.218 465.277 284.114 465.509 283.906C465.749 283.69 465.953 283.382 466.121 282.982C466.297 282.582 466.433 282.098 466.529 281.53C466.625 280.954 466.673 280.306 466.673 279.586C466.673 278.186 466.513 277.11 466.193 276.358C465.881 275.606 465.401 275.23 464.753 275.23C464.105 275.23 463.621 275.606 463.301 276.358C462.989 277.11 462.833 278.186 462.833 279.586C462.833 281.106 462.997 282.258 463.325 283.042C463.653 283.826 464.129 284.218 464.753 284.218Z" fill="#54555A"/>
<path d="M483.588 281.171L477.662 282.11" stroke="#6D6E73"/>
<path d="M485.823 301.422L479.835 301.798" stroke="#6D6E73"/>
<path d="M486.143 321.793L480.146 321.604" stroke="#6D6E73"/>
<path d="M484.545 342.103L478.592 341.351" stroke="#6D6E73"/>
<path d="M481.042 362.174L475.187 360.865" stroke="#6D6E73"/>
<path d="M475.666 381.825L469.959 379.971" stroke="#6D6E73"/>
<path d="M475.666 381.825L466.155 378.735" stroke="#54555A" stroke-width="3"/>
<path d="M452.852 372.766C452.852 374.606 452.552 376.01 451.952 376.978C451.36 377.946 450.536 378.43 449.48 378.43C448.784 378.43 448.2 378.27 447.728 377.95C447.264 377.63 446.992 377.178 446.912 376.594C447.256 376.37 447.688 376.246 448.208 376.222C448.312 376.806 448.464 377.23 448.664 377.494C448.864 377.75 449.176 377.878 449.6 377.878C450.232 377.878 450.728 377.494 451.088 376.726C451.448 375.958 451.628 374.87 451.628 373.462H451.604C451.108 374.286 450.368 374.698 449.384 374.698C448.52 374.698 447.86 374.402 447.404 373.81C446.948 373.21 446.72 372.506 446.72 371.698C446.72 370.77 446.996 369.982 447.548 369.334C448.108 368.686 448.8 368.362 449.624 368.362C450.112 368.362 450.548 368.446 450.932 368.614C451.316 368.782 451.624 369.006 451.856 369.286C452.096 369.558 452.292 369.89 452.444 370.282C452.596 370.674 452.7 371.07 452.756 371.47C452.82 371.87 452.852 372.302 452.852 372.766ZM448.1 371.746C448.1 372.402 448.228 372.966 448.484 373.438C448.74 373.902 449.1 374.134 449.564 374.134C450.172 374.134 450.636 373.934 450.956 373.534C451.276 373.126 451.436 372.574 451.436 371.878C451.436 370.846 451.28 370.094 450.968 369.622C450.656 369.142 450.188 368.902 449.564 368.902C449.084 368.902 448.72 369.158 448.472 369.67C448.224 370.182 448.1 370.874 448.1 371.746ZM454.021 373.558C454.021 372.79 454.093 372.09 454.237 371.458C454.389 370.818 454.609 370.27 454.897 369.814C455.185 369.35 455.537 368.994 455.953 368.746C456.369 368.49 456.845 368.362 457.381 368.362C457.933 368.362 458.417 368.494 458.833 368.758C459.249 369.014 459.597 369.378 459.877 369.85C460.165 370.314 460.381 370.874 460.525 371.53C460.669 372.178 460.741 372.894 460.741 373.678C460.741 374.326 460.665 374.938 460.513 375.514C460.361 376.09 460.141 376.594 459.853 377.026C459.565 377.458 459.213 377.802 458.797 378.058C458.381 378.306 457.909 378.43 457.381 378.43C456.829 378.43 456.345 378.302 455.929 378.046C455.513 377.782 455.161 377.43 454.873 376.99C454.593 376.542 454.381 376.026 454.237 375.442C454.093 374.85 454.021 374.222 454.021 373.558ZM457.381 377.89C457.653 377.89 457.905 377.786 458.137 377.578C458.377 377.362 458.581 377.054 458.749 376.654C458.925 376.254 459.061 375.77 459.157 375.202C459.253 374.626 459.301 373.978 459.301 373.258C459.301 371.858 459.141 370.782 458.821 370.03C458.509 369.278 458.029 368.902 457.381 368.902C456.733 368.902 456.249 369.278 455.929 370.03C455.617 370.782 455.461 371.858 455.461 373.258C455.461 374.778 455.625 375.93 455.953 376.714C456.281 377.498 456.757 377.89 457.381 377.89Z" fill="#54555A"/>
<path d="M475.666 381.825L469.959 379.971" stroke="#6D6E73"/>
<path d="M468.465 400.883L462.958 398.5" stroke="#6D6E73"/>
<path d="M459.501 419.179L454.244 416.289" stroke="#6D6E73"/>
<path d="M448.856 436.55L443.894 433.178" stroke="#6D6E73"/>
<path d="M436.624 452.843L432 449.018" stroke="#6D6E73"/>
<path d="M422.912 467.912L418.669 463.669" stroke="#6D6E73"/>
<path d="M422.912 467.912L415.841 460.841" stroke="#54555A" stroke-width="3"/>
<path d="M394.17 450.457V457.693L395.598 457.873C395.63 458.001 395.63 458.161 395.598 458.353C395.094 458.329 394.41 458.317 393.546 458.317C392.834 458.317 392.142 458.325 391.47 458.341C391.422 458.189 391.422 458.033 391.47 457.873L392.898 457.741C392.93 457.301 392.946 456.793 392.946 456.217V449.629L391.362 449.905C391.33 449.753 391.33 449.561 391.362 449.329L394.11 448.513C394.182 448.593 394.222 448.673 394.23 448.753C394.19 448.961 394.17 449.329 394.17 449.857V450.457ZM396.887 453.673C396.887 452.905 396.959 452.205 397.103 451.573C397.255 450.933 397.475 450.385 397.763 449.929C398.051 449.465 398.403 449.109 398.819 448.861C399.235 448.605 399.711 448.477 400.247 448.477C400.799 448.477 401.283 448.609 401.699 448.873C402.115 449.129 402.463 449.493 402.743 449.965C403.031 450.429 403.247 450.989 403.391 451.645C403.535 452.293 403.607 453.009 403.607 453.793C403.607 454.441 403.531 455.053 403.379 455.629C403.227 456.205 403.007 456.709 402.719 457.141C402.431 457.573 402.079 457.917 401.663 458.173C401.247 458.421 400.775 458.545 400.247 458.545C399.695 458.545 399.211 458.417 398.795 458.161C398.379 457.897 398.027 457.545 397.739 457.105C397.459 456.657 397.247 456.141 397.103 455.557C396.959 454.965 396.887 454.337 396.887 453.673ZM400.247 458.005C400.519 458.005 400.771 457.901 401.003 457.693C401.243 457.477 401.447 457.169 401.615 456.769C401.791 456.369 401.927 455.885 402.023 455.317C402.119 454.741 402.167 454.093 402.167 453.373C402.167 451.973 402.007 450.897 401.687 450.145C401.375 449.393 400.895 449.017 400.247 449.017C399.599 449.017 399.115 449.393 398.795 450.145C398.483 450.897 398.327 451.973 398.327 453.373C398.327 454.893 398.491 456.045 398.819 456.829C399.147 457.613 399.623 458.005 400.247 458.005ZM404.926 453.673C404.926 452.905 404.998 452.205 405.142 451.573C405.294 450.933 405.514 450.385 405.802 449.929C406.09 449.465 406.442 449.109 406.858 448.861C407.274 448.605 407.75 448.477 408.286 448.477C408.838 448.477 409.322 448.609 409.738 448.873C410.154 449.129 410.502 449.493 410.782 449.965C411.07 450.429 411.286 450.989 411.43 451.645C411.574 452.293 411.646 453.009 411.646 453.793C411.646 454.441 411.57 455.053 411.418 455.629C411.266 456.205 411.046 456.709 410.758 457.141C410.47 457.573 410.118 457.917 409.702 458.173C409.286 458.421 408.814 458.545 408.286 458.545C407.734 458.545 407.25 458.417 406.834 458.161C406.418 457.897 406.066 457.545 405.778 457.105C405.498 456.657 405.286 456.141 405.142 455.557C404.998 454.965 404.926 454.337 404.926 453.673ZM408.286 458.005C408.558 458.005 408.81 457.901 409.042 457.693C409.282 457.477 409.486 457.169 409.654 456.769C409.83 456.369 409.966 455.885 410.062 455.317C410.158 454.741 410.206 454.093 410.206 453.373C410.206 451.973 410.046 450.897 409.726 450.145C409.414 449.393 408.934 449.017 408.286 449.017C407.638 449.017 407.154 449.393 406.834 450.145C406.522 450.897 406.366 451.973 406.366 453.373C406.366 454.893 406.53 456.045 406.858 456.829C407.186 457.613 407.662 458.005 408.286 458.005Z" fill="#54555A"/>
<path d="M5.09766 547V534.28H0.177656V533H11.4977V534.28H6.57766V547H5.09766ZM16.7483 547.1C15.7349 547.1 14.8216 546.873 14.0083 546.42C13.2083 545.953 12.5749 545.32 12.1083 544.52C11.6416 543.707 11.4083 542.78 11.4083 541.74C11.4083 540.687 11.6416 539.76 12.1083 538.96C12.5749 538.16 13.2083 537.533 14.0083 537.08C14.8083 536.627 15.7216 536.4 16.7483 536.4C17.7883 536.4 18.7083 536.627 19.5083 537.08C20.3216 537.533 20.9549 538.16 21.4083 538.96C21.8749 539.76 22.1083 540.687 22.1083 541.74C22.1083 542.78 21.8749 543.707 21.4083 544.52C20.9549 545.32 20.3216 545.953 19.5083 546.42C18.6949 546.873 17.7749 547.1 16.7483 547.1ZM16.7483 545.84C17.5083 545.84 18.1816 545.673 18.7683 545.34C19.3549 544.993 19.8149 544.513 20.1483 543.9C20.4949 543.273 20.6683 542.553 20.6683 541.74C20.6683 540.913 20.4949 540.193 20.1483 539.58C19.8149 538.967 19.3549 538.493 18.7683 538.16C18.1816 537.813 17.5149 537.64 16.7683 537.64C16.0216 537.64 15.3549 537.813 14.7683 538.16C14.1816 538.493 13.7149 538.967 13.3683 539.58C13.0216 540.193 12.8483 540.913 12.8483 541.74C12.8483 542.553 13.0216 543.273 13.3683 543.9C13.7149 544.513 14.1816 544.993 14.7683 545.34C15.3549 545.673 16.0149 545.84 16.7483 545.84ZM30.3673 536.4C31.2207 536.4 31.9673 536.567 32.6073 536.9C33.2607 537.22 33.7673 537.713 34.1273 538.38C34.5007 539.047 34.6873 539.887 34.6873 540.9V547H33.2673V541.04C33.2673 539.933 32.9873 539.1 32.4273 538.54C31.8807 537.967 31.1073 537.68 30.1073 537.68C29.3607 537.68 28.7073 537.833 28.1473 538.14C27.6007 538.433 27.174 538.867 26.8673 539.44C26.574 540 26.4273 540.68 26.4273 541.48V547H25.0073V536.5H26.3673V539.38L26.1473 538.84C26.4807 538.08 27.014 537.487 27.7473 537.06C28.4807 536.62 29.354 536.4 30.3673 536.4ZM41.343 547.1C40.4763 547.1 39.6563 546.98 38.883 546.74C38.1096 546.487 37.503 546.173 37.063 545.8L37.703 544.68C38.1296 545 38.6763 545.28 39.343 545.52C40.0096 545.747 40.7096 545.86 41.443 545.86C42.443 545.86 43.163 545.707 43.603 545.4C44.043 545.08 44.263 544.66 44.263 544.14C44.263 543.753 44.1363 543.453 43.883 543.24C43.643 543.013 43.323 542.847 42.923 542.74C42.523 542.62 42.0763 542.52 41.583 542.44C41.0896 542.36 40.5963 542.267 40.103 542.16C39.623 542.053 39.183 541.9 38.783 541.7C38.383 541.487 38.0563 541.2 37.803 540.84C37.563 540.48 37.443 540 37.443 539.4C37.443 538.827 37.603 538.313 37.923 537.86C38.243 537.407 38.7096 537.053 39.323 536.8C39.9496 536.533 40.7096 536.4 41.603 536.4C42.283 536.4 42.963 536.493 43.643 536.68C44.323 536.853 44.883 537.087 45.323 537.38L44.703 538.52C44.2363 538.2 43.7363 537.973 43.203 537.84C42.6696 537.693 42.1363 537.62 41.603 537.62C40.6563 537.62 39.9563 537.787 39.503 538.12C39.063 538.44 38.843 538.853 38.843 539.36C38.843 539.76 38.963 540.073 39.203 540.3C39.4563 540.527 39.783 540.707 40.183 540.84C40.5963 540.96 41.043 541.06 41.523 541.14C42.0163 541.22 42.503 541.32 42.983 541.44C43.4763 541.547 43.923 541.7 44.323 541.9C44.7363 542.087 45.063 542.36 45.303 542.72C45.5563 543.067 45.683 543.527 45.683 544.1C45.683 544.713 45.5096 545.247 45.163 545.7C44.8296 546.14 44.3363 546.487 43.683 546.74C43.043 546.98 42.263 547.1 41.343 547.1ZM57.803 547.1C56.7896 547.1 55.8763 546.873 55.063 546.42C54.263 545.953 53.6296 545.32 53.163 544.52C52.6963 543.707 52.463 542.78 52.463 541.74C52.463 540.687 52.6963 539.76 53.163 538.96C53.6296 538.16 54.263 537.533 55.063 537.08C55.863 536.627 56.7763 536.4 57.803 536.4C58.843 536.4 59.763 536.627 60.563 537.08C61.3763 537.533 62.0096 538.16 62.463 538.96C62.9296 539.76 63.163 540.687 63.163 541.74C63.163 542.78 62.9296 543.707 62.463 544.52C62.0096 545.32 61.3763 545.953 60.563 546.42C59.7496 546.873 58.8296 547.1 57.803 547.1ZM57.803 545.84C58.563 545.84 59.2363 545.673 59.823 545.34C60.4096 544.993 60.8696 544.513 61.203 543.9C61.5496 543.273 61.723 542.553 61.723 541.74C61.723 540.913 61.5496 540.193 61.203 539.58C60.8696 538.967 60.4096 538.493 59.823 538.16C59.2363 537.813 58.5696 537.64 57.823 537.64C57.0763 537.64 56.4096 537.813 55.823 538.16C55.2363 538.493 54.7696 538.967 54.423 539.58C54.0763 540.193 53.903 540.913 53.903 541.74C53.903 542.553 54.0763 543.273 54.423 543.9C54.7696 544.513 55.2363 544.993 55.823 545.34C56.4096 545.673 57.0696 545.84 57.803 545.84ZM66.302 547V535.18C66.302 534.247 66.5754 533.493 67.122 532.92C67.6687 532.347 68.4554 532.06 69.482 532.06C69.882 532.06 70.2687 532.113 70.642 532.22C71.0154 532.327 71.3287 532.493 71.582 532.72L71.102 533.78C70.902 533.607 70.6687 533.48 70.402 533.4C70.1354 533.307 69.8487 533.26 69.542 533.26C68.942 533.26 68.482 533.427 68.162 533.76C67.842 534.093 67.682 534.587 67.682 535.24V536.84L67.722 537.5V547H66.302ZM64.422 537.68V536.5H70.922V537.68H64.422ZM84.4538 547.12C83.4004 547.12 82.4271 546.947 81.5338 546.6C80.6404 546.24 79.8671 545.74 79.2138 545.1C78.5604 544.46 78.0471 543.707 77.6738 542.84C77.3138 541.973 77.1338 541.027 77.1338 540C77.1338 538.973 77.3138 538.027 77.6738 537.16C78.0471 536.293 78.5604 535.54 79.2138 534.9C79.8804 534.26 80.6604 533.767 81.5538 533.42C82.4471 533.06 83.4204 532.88 84.4738 532.88C85.4871 532.88 86.4404 533.053 87.3338 533.4C88.2271 533.733 88.9804 534.24 89.5938 534.92L88.6538 535.86C88.0804 535.273 87.4471 534.853 86.7538 534.6C86.0604 534.333 85.3138 534.2 84.5138 534.2C83.6738 534.2 82.8938 534.347 82.1738 534.64C81.4538 534.92 80.8271 535.327 80.2938 535.86C79.7604 536.38 79.3404 536.993 79.0337 537.7C78.7404 538.393 78.5938 539.16 78.5938 540C78.5938 540.84 78.7404 541.613 79.0337 542.32C79.3404 543.013 79.7604 543.627 80.2938 544.16C80.8271 544.68 81.4538 545.087 82.1738 545.38C82.8938 545.66 83.6738 545.8 84.5138 545.8C85.3138 545.8 86.0604 545.667 86.7538 545.4C87.4471 545.133 88.0804 544.707 88.6538 544.12L89.5938 545.06C88.9804 545.74 88.2271 546.253 87.3338 546.6C86.4404 546.947 85.4804 547.12 84.4538 547.12ZM98.8725 547V544.68L98.8125 544.3V540.42C98.8125 539.527 98.5592 538.84 98.0525 538.36C97.5592 537.88 96.8192 537.64 95.8325 537.64C95.1525 537.64 94.5058 537.753 93.8925 537.98C93.2792 538.207 92.7592 538.507 92.3325 538.88L91.6925 537.82C92.2258 537.367 92.8658 537.02 93.6125 536.78C94.3592 536.527 95.1458 536.4 95.9725 536.4C97.3325 536.4 98.3792 536.74 99.1125 537.42C99.8592 538.087 100.233 539.107 100.233 540.48V547H98.8725ZM95.2525 547.1C94.4658 547.1 93.7792 546.973 93.1925 546.72C92.6192 546.453 92.1792 546.093 91.8725 545.64C91.5658 545.173 91.4125 544.64 91.4125 544.04C91.4125 543.493 91.5392 543 91.7925 542.56C92.0592 542.107 92.4858 541.747 93.0725 541.48C93.6725 541.2 94.4725 541.06 95.4725 541.06H99.0925V542.12H95.5125C94.4992 542.12 93.7925 542.3 93.3925 542.66C93.0058 543.02 92.8125 543.467 92.8125 544C92.8125 544.6 93.0458 545.08 93.5125 545.44C93.9792 545.8 94.6325 545.98 95.4725 545.98C96.2725 545.98 96.9592 545.8 97.5325 545.44C98.1192 545.067 98.5458 544.533 98.8125 543.84L99.1325 544.82C98.8658 545.513 98.3992 546.067 97.7325 546.48C97.0792 546.893 96.2525 547.1 95.2525 547.1ZM104.089 547V536.5H105.449V539.36L105.309 538.86C105.603 538.06 106.096 537.453 106.789 537.04C107.483 536.613 108.343 536.4 109.369 536.4V537.78C109.316 537.78 109.263 537.78 109.209 537.78C109.156 537.767 109.103 537.76 109.049 537.76C107.943 537.76 107.076 538.1 106.449 538.78C105.823 539.447 105.509 540.4 105.509 541.64V547H104.089ZM117.38 547.1C116.46 547.1 115.634 546.893 114.9 546.48C114.167 546.053 113.587 545.44 113.16 544.64C112.734 543.84 112.52 542.873 112.52 541.74C112.52 540.593 112.734 539.627 113.16 538.84C113.6 538.04 114.187 537.433 114.92 537.02C115.654 536.607 116.474 536.4 117.38 536.4C118.38 536.4 119.274 536.627 120.06 537.08C120.86 537.52 121.487 538.14 121.94 538.94C122.394 539.74 122.62 540.673 122.62 541.74C122.62 542.793 122.394 543.727 121.94 544.54C121.487 545.34 120.86 545.967 120.06 546.42C119.274 546.873 118.38 547.1 117.38 547.1ZM111.96 547V532.16H113.38V539.6L113.18 541.72L113.32 543.84V547H111.96ZM117.28 545.84C118.027 545.84 118.694 545.673 119.28 545.34C119.867 544.993 120.334 544.513 120.68 543.9C121.027 543.273 121.2 542.553 121.2 541.74C121.2 540.913 121.027 540.193 120.68 539.58C120.334 538.967 119.867 538.493 119.28 538.16C118.694 537.813 118.027 537.64 117.28 537.64C116.534 537.64 115.86 537.813 115.26 538.16C114.674 538.493 114.207 538.967 113.86 539.58C113.527 540.193 113.36 540.913 113.36 541.74C113.36 542.553 113.527 543.273 113.86 543.9C114.207 544.513 114.674 544.993 115.26 545.34C115.86 545.673 116.534 545.84 117.28 545.84ZM129.795 547.1C128.782 547.1 127.868 546.873 127.055 546.42C126.255 545.953 125.622 545.32 125.155 544.52C124.688 543.707 124.455 542.78 124.455 541.74C124.455 540.687 124.688 539.76 125.155 538.96C125.622 538.16 126.255 537.533 127.055 537.08C127.855 536.627 128.768 536.4 129.795 536.4C130.835 536.4 131.755 536.627 132.555 537.08C133.368 537.533 134.002 538.16 134.455 538.96C134.922 539.76 135.155 540.687 135.155 541.74C135.155 542.78 134.922 543.707 134.455 544.52C134.002 545.32 133.368 545.953 132.555 546.42C131.742 546.873 130.822 547.1 129.795 547.1ZM129.795 545.84C130.555 545.84 131.228 545.673 131.815 545.34C132.402 544.993 132.862 544.513 133.195 543.9C133.542 543.273 133.715 542.553 133.715 541.74C133.715 540.913 133.542 540.193 133.195 539.58C132.862 538.967 132.402 538.493 131.815 538.16C131.228 537.813 130.562 537.64 129.815 537.64C129.068 537.64 128.402 537.813 127.815 538.16C127.228 538.493 126.762 538.967 126.415 539.58C126.068 540.193 125.895 540.913 125.895 541.74C125.895 542.553 126.068 543.273 126.415 543.9C126.762 544.513 127.228 544.993 127.815 545.34C128.402 545.673 129.062 545.84 129.795 545.84ZM143.414 536.4C144.268 536.4 145.014 536.567 145.654 536.9C146.308 537.22 146.814 537.713 147.174 538.38C147.548 539.047 147.734 539.887 147.734 540.9V547H146.314V541.04C146.314 539.933 146.034 539.1 145.474 538.54C144.928 537.967 144.154 537.68 143.154 537.68C142.408 537.68 141.754 537.833 141.194 538.14C140.648 538.433 140.221 538.867 139.914 539.44C139.621 540 139.474 540.68 139.474 541.48V547H138.054V536.5H139.414V539.38L139.194 538.84C139.528 538.08 140.061 537.487 140.794 537.06C141.528 536.62 142.401 536.4 143.414 536.4ZM160.964 547.12C159.924 547.12 158.924 546.953 157.964 546.62C157.018 546.273 156.284 545.833 155.764 545.3L156.344 544.16C156.838 544.64 157.498 545.047 158.324 545.38C159.164 545.7 160.044 545.86 160.964 545.86C161.844 545.86 162.558 545.753 163.104 545.54C163.664 545.313 164.071 545.013 164.324 544.64C164.591 544.267 164.724 543.853 164.724 543.4C164.724 542.853 164.564 542.413 164.244 542.08C163.938 541.747 163.531 541.487 163.024 541.3C162.518 541.1 161.958 540.927 161.344 540.78C160.731 540.633 160.118 540.48 159.504 540.32C158.891 540.147 158.324 539.92 157.804 539.64C157.298 539.36 156.884 538.993 156.564 538.54C156.258 538.073 156.104 537.467 156.104 536.72C156.104 536.027 156.284 535.393 156.644 534.82C157.018 534.233 157.584 533.767 158.344 533.42C159.104 533.06 160.078 532.88 161.264 532.88C162.051 532.88 162.831 532.993 163.604 533.22C164.378 533.433 165.044 533.733 165.604 534.12L165.104 535.3C164.504 534.9 163.864 534.607 163.184 534.42C162.518 534.233 161.871 534.14 161.244 534.14C160.404 534.14 159.711 534.253 159.164 534.48C158.618 534.707 158.211 535.013 157.944 535.4C157.691 535.773 157.564 536.2 157.564 536.68C157.564 537.227 157.718 537.667 158.024 538C158.344 538.333 158.758 538.593 159.264 538.78C159.784 538.967 160.351 539.133 160.964 539.28C161.578 539.427 162.184 539.587 162.784 539.76C163.398 539.933 163.958 540.16 164.464 540.44C164.984 540.707 165.398 541.067 165.704 541.52C166.024 541.973 166.184 542.567 166.184 543.3C166.184 543.98 165.998 544.613 165.624 545.2C165.251 545.773 164.678 546.24 163.904 546.6C163.144 546.947 162.164 547.12 160.964 547.12ZM175.689 547V544.68L175.629 544.3V540.42C175.629 539.527 175.376 538.84 174.869 538.36C174.376 537.88 173.636 537.64 172.649 537.64C171.969 537.64 171.322 537.753 170.709 537.98C170.096 538.207 169.576 538.507 169.149 538.88L168.509 537.82C169.042 537.367 169.682 537.02 170.429 536.78C171.176 536.527 171.962 536.4 172.789 536.4C174.149 536.4 175.196 536.74 175.929 537.42C176.676 538.087 177.049 539.107 177.049 540.48V547H175.689ZM172.069 547.1C171.282 547.1 170.596 546.973 170.009 546.72C169.436 546.453 168.996 546.093 168.689 545.64C168.382 545.173 168.229 544.64 168.229 544.04C168.229 543.493 168.356 543 168.609 542.56C168.876 542.107 169.302 541.747 169.889 541.48C170.489 541.2 171.289 541.06 172.289 541.06H175.909V542.12H172.329C171.316 542.12 170.609 542.3 170.209 542.66C169.822 543.02 169.629 543.467 169.629 544C169.629 544.6 169.862 545.08 170.329 545.44C170.796 545.8 171.449 545.98 172.289 545.98C173.089 545.98 173.776 545.8 174.349 545.44C174.936 545.067 175.362 544.533 175.629 543.84L175.949 544.82C175.682 545.513 175.216 546.067 174.549 546.48C173.896 546.893 173.069 547.1 172.069 547.1ZM183.41 547L178.75 536.5H180.23L184.51 546.24H183.81L188.15 536.5H189.55L184.87 547H183.41ZM195.717 547.1C194.624 547.1 193.664 546.873 192.837 546.42C192.011 545.953 191.364 545.32 190.897 544.52C190.431 543.707 190.197 542.78 190.197 541.74C190.197 540.7 190.417 539.78 190.857 538.98C191.311 538.18 191.924 537.553 192.697 537.1C193.484 536.633 194.364 536.4 195.337 536.4C196.324 536.4 197.197 536.627 197.957 537.08C198.731 537.52 199.337 538.147 199.777 538.96C200.217 539.76 200.437 540.687 200.437 541.74C200.437 541.807 200.431 541.88 200.417 541.96C200.417 542.027 200.417 542.1 200.417 542.18H191.277V541.12H199.657L199.097 541.54C199.097 540.78 198.931 540.107 198.597 539.52C198.277 538.92 197.837 538.453 197.277 538.12C196.717 537.787 196.071 537.62 195.337 537.62C194.617 537.62 193.971 537.787 193.397 538.12C192.824 538.453 192.377 538.92 192.057 539.52C191.737 540.12 191.577 540.807 191.577 541.58V541.8C191.577 542.6 191.751 543.307 192.097 543.92C192.457 544.52 192.951 544.993 193.577 545.34C194.217 545.673 194.944 545.84 195.757 545.84C196.397 545.84 196.991 545.727 197.537 545.5C198.097 545.273 198.577 544.927 198.977 544.46L199.777 545.38C199.311 545.94 198.724 546.367 198.017 546.66C197.324 546.953 196.557 547.1 195.717 547.1ZM207.508 547.1C206.508 547.1 205.608 546.873 204.808 546.42C204.021 545.967 203.401 545.34 202.948 544.54C202.494 543.727 202.268 542.793 202.268 541.74C202.268 540.673 202.494 539.74 202.948 538.94C203.401 538.14 204.021 537.52 204.808 537.08C205.608 536.627 206.508 536.4 207.508 536.4C208.428 536.4 209.248 536.607 209.968 537.02C210.701 537.433 211.281 538.04 211.708 538.84C212.148 539.627 212.368 540.593 212.368 541.74C212.368 542.873 212.154 543.84 211.728 544.64C211.301 545.44 210.721 546.053 209.988 546.48C209.268 546.893 208.441 547.1 207.508 547.1ZM207.608 545.84C208.354 545.84 209.021 545.673 209.608 545.34C210.208 544.993 210.674 544.513 211.008 543.9C211.354 543.273 211.528 542.553 211.528 541.74C211.528 540.913 211.354 540.193 211.008 539.58C210.674 538.967 210.208 538.493 209.608 538.16C209.021 537.813 208.354 537.64 207.608 537.64C206.874 537.64 206.214 537.813 205.628 538.16C205.041 538.493 204.574 538.967 204.228 539.58C203.881 540.193 203.708 540.913 203.708 541.74C203.708 542.553 203.881 543.273 204.228 543.9C204.574 544.513 205.041 544.993 205.628 545.34C206.214 545.673 206.874 545.84 207.608 545.84ZM211.568 547V543.84L211.708 541.72L211.508 539.6V532.16H212.928V547H211.568Z" fill="#F8FAFC"/>
<path d="M237.318 547.12C235.532 547.12 234.125 546.607 233.098 545.58C232.072 544.553 231.558 543.033 231.558 541.02V533H233.038V540.96C233.038 542.613 233.412 543.833 234.158 544.62C234.905 545.407 235.958 545.8 237.318 545.8C238.692 545.8 239.752 545.407 240.498 544.62C241.245 543.833 241.618 542.613 241.618 540.96V533H243.058V541.02C243.058 543.033 242.545 544.553 241.518 545.58C240.505 546.607 239.105 547.12 237.318 547.12ZM252.578 536.4C253.432 536.4 254.178 536.567 254.818 536.9C255.472 537.22 255.978 537.713 256.338 538.38C256.712 539.047 256.898 539.887 256.898 540.9V547H255.478V541.04C255.478 539.933 255.198 539.1 254.638 538.54C254.092 537.967 253.318 537.68 252.318 537.68C251.572 537.68 250.918 537.833 250.358 538.14C249.812 538.433 249.385 538.867 249.078 539.44C248.785 540 248.638 540.68 248.638 541.48V547H247.218V536.5H248.578V539.38L248.358 538.84C248.692 538.08 249.225 537.487 249.958 537.06C250.692 536.62 251.565 536.4 252.578 536.4ZM260.734 547V536.5H262.154V547H260.734ZM261.454 534.18C261.161 534.18 260.914 534.08 260.714 533.88C260.514 533.68 260.414 533.44 260.414 533.16C260.414 532.88 260.514 532.647 260.714 532.46C260.914 532.26 261.161 532.16 261.454 532.16C261.747 532.16 261.994 532.253 262.194 532.44C262.394 532.627 262.494 532.86 262.494 533.14C262.494 533.433 262.394 533.68 262.194 533.88C262.007 534.08 261.761 534.18 261.454 534.18ZM269.425 547.1C268.438 547.1 267.678 546.833 267.145 546.3C266.612 545.767 266.345 545.013 266.345 544.04V534.18H267.765V543.96C267.765 544.573 267.918 545.047 268.225 545.38C268.545 545.713 268.998 545.88 269.585 545.88C270.212 545.88 270.732 545.7 271.145 545.34L271.645 546.36C271.365 546.613 271.025 546.8 270.625 546.92C270.238 547.04 269.838 547.1 269.425 547.1ZM264.465 537.68V536.5H270.965V537.68H264.465ZM277.05 547.1C276.183 547.1 275.363 546.98 274.59 546.74C273.817 546.487 273.21 546.173 272.77 545.8L273.41 544.68C273.837 545 274.383 545.28 275.05 545.52C275.717 545.747 276.417 545.86 277.15 545.86C278.15 545.86 278.87 545.707 279.31 545.4C279.75 545.08 279.97 544.66 279.97 544.14C279.97 543.753 279.843 543.453 279.59 543.24C279.35 543.013 279.03 542.847 278.63 542.74C278.23 542.62 277.783 542.52 277.29 542.44C276.797 542.36 276.303 542.267 275.81 542.16C275.33 542.053 274.89 541.9 274.49 541.7C274.09 541.487 273.763 541.2 273.51 540.84C273.27 540.48 273.15 540 273.15 539.4C273.15 538.827 273.31 538.313 273.63 537.86C273.95 537.407 274.417 537.053 275.03 536.8C275.657 536.533 276.417 536.4 277.31 536.4C277.99 536.4 278.67 536.493 279.35 536.68C280.03 536.853 280.59 537.087 281.03 537.38L280.41 538.52C279.943 538.2 279.443 537.973 278.91 537.84C278.377 537.693 277.843 537.62 277.31 537.62C276.363 537.62 275.663 537.787 275.21 538.12C274.77 538.44 274.55 538.853 274.55 539.36C274.55 539.76 274.67 540.073 274.91 540.3C275.163 540.527 275.49 540.707 275.89 540.84C276.303 540.96 276.75 541.06 277.23 541.14C277.723 541.22 278.21 541.32 278.69 541.44C279.183 541.547 279.63 541.7 280.03 541.9C280.443 542.087 280.77 542.36 281.01 542.72C281.263 543.067 281.39 543.527 281.39 544.1C281.39 544.713 281.217 545.247 280.87 545.7C280.537 546.14 280.043 546.487 279.39 546.74C278.75 546.98 277.97 547.1 277.05 547.1ZM289.53 547V533H294.77C295.957 533 296.977 533.193 297.83 533.58C298.683 533.953 299.337 534.5 299.79 535.22C300.257 535.927 300.49 536.787 300.49 537.8C300.49 538.787 300.257 539.64 299.79 540.36C299.337 541.067 298.683 541.613 297.83 542C296.977 542.373 295.957 542.56 294.77 542.56H290.35L291.01 541.88V547H289.53ZM299.09 547L295.49 541.92H297.09L300.71 547H299.09ZM291.01 542L290.35 541.3H294.73C296.13 541.3 297.19 540.993 297.91 540.38C298.643 539.767 299.01 538.907 299.01 537.8C299.01 536.68 298.643 535.813 297.91 535.2C297.19 534.587 296.13 534.28 294.73 534.28H290.35L291.01 533.58V542ZM308.143 547.1C307.05 547.1 306.09 546.873 305.263 546.42C304.436 545.953 303.79 545.32 303.323 544.52C302.856 543.707 302.623 542.78 302.623 541.74C302.623 540.7 302.843 539.78 303.283 538.98C303.736 538.18 304.35 537.553 305.123 537.1C305.91 536.633 306.79 536.4 307.763 536.4C308.75 536.4 309.623 536.627 310.383 537.08C311.156 537.52 311.763 538.147 312.203 538.96C312.643 539.76 312.863 540.687 312.863 541.74C312.863 541.807 312.856 541.88 312.843 541.96C312.843 542.027 312.843 542.1 312.843 542.18H303.703V541.12H312.083L311.523 541.54C311.523 540.78 311.356 540.107 311.023 539.52C310.703 538.92 310.263 538.453 309.703 538.12C309.143 537.787 308.496 537.62 307.763 537.62C307.043 537.62 306.396 537.787 305.823 538.12C305.25 538.453 304.803 538.92 304.483 539.52C304.163 540.12 304.003 540.807 304.003 541.58V541.8C304.003 542.6 304.176 543.307 304.523 543.92C304.883 544.52 305.376 544.993 306.003 545.34C306.643 545.673 307.37 545.84 308.183 545.84C308.823 545.84 309.416 545.727 309.963 545.5C310.523 545.273 311.003 544.927 311.403 544.46L312.203 545.38C311.736 545.94 311.15 546.367 310.443 546.66C309.75 546.953 308.983 547.1 308.143 547.1ZM320.093 547.1C319.2 547.1 318.42 546.933 317.753 546.6C317.087 546.267 316.567 545.767 316.193 545.1C315.833 544.433 315.653 543.6 315.653 542.6V536.5H317.073V542.44C317.073 543.56 317.347 544.407 317.893 544.98C318.453 545.54 319.233 545.82 320.233 545.82C320.967 545.82 321.6 545.673 322.133 545.38C322.68 545.073 323.093 544.633 323.373 544.06C323.667 543.487 323.813 542.8 323.813 542V536.5H325.233V547H323.873V544.12L324.093 544.64C323.76 545.413 323.24 546.02 322.533 546.46C321.84 546.887 321.027 547.1 320.093 547.1ZM332.011 547.1C331.144 547.1 330.324 546.98 329.551 546.74C328.778 546.487 328.171 546.173 327.731 545.8L328.371 544.68C328.798 545 329.344 545.28 330.011 545.52C330.678 545.747 331.378 545.86 332.111 545.86C333.111 545.86 333.831 545.707 334.271 545.4C334.711 545.08 334.931 544.66 334.931 544.14C334.931 543.753 334.804 543.453 334.551 543.24C334.311 543.013 333.991 542.847 333.591 542.74C333.191 542.62 332.744 542.52 332.251 542.44C331.758 542.36 331.264 542.267 330.771 542.16C330.291 542.053 329.851 541.9 329.451 541.7C329.051 541.487 328.724 541.2 328.471 540.84C328.231 540.48 328.111 540 328.111 539.4C328.111 538.827 328.271 538.313 328.591 537.86C328.911 537.407 329.378 537.053 329.991 536.8C330.618 536.533 331.378 536.4 332.271 536.4C332.951 536.4 333.631 536.493 334.311 536.68C334.991 536.853 335.551 537.087 335.991 537.38L335.371 538.52C334.904 538.2 334.404 537.973 333.871 537.84C333.338 537.693 332.804 537.62 332.271 537.62C331.324 537.62 330.624 537.787 330.171 538.12C329.731 538.44 329.511 538.853 329.511 539.36C329.511 539.76 329.631 540.073 329.871 540.3C330.124 540.527 330.451 540.707 330.851 540.84C331.264 540.96 331.711 541.06 332.191 541.14C332.684 541.22 333.171 541.32 333.651 541.44C334.144 541.547 334.591 541.7 334.991 541.9C335.404 542.087 335.731 542.36 335.971 542.72C336.224 543.067 336.351 543.527 336.351 544.1C336.351 544.713 336.178 545.247 335.831 545.7C335.498 546.14 335.004 546.487 334.351 546.74C333.711 546.98 332.931 547.1 332.011 547.1ZM343.417 547.1C342.323 547.1 341.363 546.873 340.537 546.42C339.71 545.953 339.063 545.32 338.597 544.52C338.13 543.707 337.897 542.78 337.897 541.74C337.897 540.7 338.117 539.78 338.557 538.98C339.01 538.18 339.623 537.553 340.397 537.1C341.183 536.633 342.063 536.4 343.037 536.4C344.023 536.4 344.897 536.627 345.657 537.08C346.43 537.52 347.037 538.147 347.477 538.96C347.917 539.76 348.137 540.687 348.137 541.74C348.137 541.807 348.13 541.88 348.117 541.96C348.117 542.027 348.117 542.1 348.117 542.18H338.977V541.12H347.357L346.797 541.54C346.797 540.78 346.63 540.107 346.297 539.52C345.977 538.92 345.537 538.453 344.977 538.12C344.417 537.787 343.77 537.62 343.037 537.62C342.317 537.62 341.67 537.787 341.097 538.12C340.523 538.453 340.077 538.92 339.757 539.52C339.437 540.12 339.277 540.807 339.277 541.58V541.8C339.277 542.6 339.45 543.307 339.797 543.92C340.157 544.52 340.65 544.993 341.277 545.34C341.917 545.673 342.643 545.84 343.457 545.84C344.097 545.84 344.69 545.727 345.237 545.5C345.797 545.273 346.277 544.927 346.677 544.46L347.477 545.38C347.01 545.94 346.423 546.367 345.717 546.66C345.023 546.953 344.257 547.1 343.417 547.1ZM355.207 547.1C354.207 547.1 353.307 546.873 352.507 546.42C351.72 545.967 351.1 545.34 350.647 544.54C350.194 543.727 349.967 542.793 349.967 541.74C349.967 540.673 350.194 539.74 350.647 538.94C351.1 538.14 351.72 537.52 352.507 537.08C353.307 536.627 354.207 536.4 355.207 536.4C356.127 536.4 356.947 536.607 357.667 537.02C358.4 537.433 358.98 538.04 359.407 538.84C359.847 539.627 360.067 540.593 360.067 541.74C360.067 542.873 359.854 543.84 359.427 544.64C359 545.44 358.42 546.053 357.687 546.48C356.967 546.893 356.14 547.1 355.207 547.1ZM355.307 545.84C356.054 545.84 356.72 545.673 357.307 545.34C357.907 544.993 358.374 544.513 358.707 543.9C359.054 543.273 359.227 542.553 359.227 541.74C359.227 540.913 359.054 540.193 358.707 539.58C358.374 538.967 357.907 538.493 357.307 538.16C356.72 537.813 356.054 537.64 355.307 537.64C354.574 537.64 353.914 537.813 353.327 538.16C352.74 538.493 352.274 538.967 351.927 539.58C351.58 540.193 351.407 540.913 351.407 541.74C351.407 542.553 351.58 543.273 351.927 543.9C352.274 544.513 352.74 544.993 353.327 545.34C353.914 545.673 354.574 545.84 355.307 545.84ZM359.267 547V543.84L359.407 541.72L359.207 539.6V532.16H360.627V547H359.267Z" fill="#F8FAFC"/>
<path d="M431.979 539.26H439.379V540.52H431.979V539.26ZM432.139 545.72H440.559V547H430.659V533H440.259V534.28H432.139V545.72ZM447.898 547.12C446.858 547.12 445.858 546.953 444.898 546.62C443.951 546.273 443.218 545.833 442.698 545.3L443.278 544.16C443.771 544.64 444.431 545.047 445.258 545.38C446.098 545.7 446.978 545.86 447.898 545.86C448.778 545.86 449.491 545.753 450.038 545.54C450.598 545.313 451.004 545.013 451.258 544.64C451.524 544.267 451.658 543.853 451.658 543.4C451.658 542.853 451.498 542.413 451.178 542.08C450.871 541.747 450.464 541.487 449.958 541.3C449.451 541.1 448.891 540.927 448.278 540.78C447.664 540.633 447.051 540.48 446.438 540.32C445.824 540.147 445.258 539.92 444.738 539.64C444.231 539.36 443.818 538.993 443.498 538.54C443.191 538.073 443.038 537.467 443.038 536.72C443.038 536.027 443.218 535.393 443.578 534.82C443.951 534.233 444.518 533.767 445.278 533.42C446.038 533.06 447.011 532.88 448.198 532.88C448.984 532.88 449.764 532.993 450.538 533.22C451.311 533.433 451.978 533.733 452.538 534.12L452.038 535.3C451.438 534.9 450.798 534.607 450.118 534.42C449.451 534.233 448.804 534.14 448.178 534.14C447.338 534.14 446.644 534.253 446.098 534.48C445.551 534.707 445.144 535.013 444.878 535.4C444.624 535.773 444.498 536.2 444.498 536.68C444.498 537.227 444.651 537.667 444.958 538C445.278 538.333 445.691 538.593 446.198 538.78C446.718 538.967 447.284 539.133 447.898 539.28C448.511 539.427 449.118 539.587 449.718 539.76C450.331 539.933 450.891 540.16 451.398 540.44C451.918 540.707 452.331 541.067 452.638 541.52C452.958 541.973 453.118 542.567 453.118 543.3C453.118 543.98 452.931 544.613 452.558 545.2C452.184 545.773 451.611 546.24 450.838 546.6C450.078 546.947 449.098 547.12 447.898 547.12ZM462.483 547.12C461.416 547.12 460.429 546.947 459.523 546.6C458.629 546.24 457.849 545.74 457.183 545.1C456.529 544.46 456.016 543.707 455.643 542.84C455.283 541.973 455.103 541.027 455.103 540C455.103 538.973 455.283 538.027 455.643 537.16C456.016 536.293 456.536 535.54 457.203 534.9C457.869 534.26 458.649 533.767 459.543 533.42C460.449 533.06 461.436 532.88 462.503 532.88C463.569 532.88 464.543 533.047 465.423 533.38C466.316 533.713 467.076 534.22 467.703 534.9L466.783 535.84C466.196 535.253 465.549 534.833 464.843 534.58C464.136 534.327 463.376 534.2 462.563 534.2C461.696 534.2 460.896 534.347 460.163 534.64C459.443 534.92 458.809 535.327 458.263 535.86C457.729 536.38 457.309 536.993 457.002 537.7C456.709 538.393 456.562 539.16 456.562 540C456.562 540.827 456.709 541.593 457.002 542.3C457.309 543.007 457.729 543.627 458.263 544.16C458.809 544.68 459.443 545.087 460.163 545.38C460.896 545.66 461.689 545.8 462.543 545.8C463.343 545.8 464.096 545.68 464.803 545.44C465.523 545.2 466.183 544.793 466.783 544.22L467.623 545.34C466.956 545.927 466.176 546.373 465.283 546.68C464.389 546.973 463.456 547.12 462.483 547.12ZM466.203 545.16V540H467.623V545.34L466.203 545.16ZM477.046 547V533H482.286C483.472 533 484.492 533.193 485.346 533.58C486.199 533.953 486.852 534.5 487.306 535.22C487.772 535.927 488.006 536.787 488.006 537.8C488.006 538.787 487.772 539.64 487.306 540.36C486.852 541.067 486.199 541.613 485.346 542C484.492 542.373 483.472 542.56 482.286 542.56H477.866L478.526 541.88V547H477.046ZM486.606 547L483.006 541.92H484.606L488.226 547H486.606ZM478.526 542L477.866 541.3H482.246C483.646 541.3 484.706 540.993 485.426 540.38C486.159 539.767 486.526 538.907 486.526 537.8C486.526 536.68 486.159 535.813 485.426 535.2C484.706 534.587 483.646 534.28 482.246 534.28H477.866L478.526 533.58V542ZM497.681 547V544.68L497.621 544.3V540.42C497.621 539.527 497.368 538.84 496.861 538.36C496.368 537.88 495.628 537.64 494.641 537.64C493.961 537.64 493.314 537.753 492.701 537.98C492.088 538.207 491.568 538.507 491.141 538.88L490.501 537.82C491.034 537.367 491.674 537.02 492.421 536.78C493.168 536.527 493.954 536.4 494.781 536.4C496.141 536.4 497.188 536.74 497.921 537.42C498.668 538.087 499.041 539.107 499.041 540.48V547H497.681ZM494.061 547.1C493.274 547.1 492.588 546.973 492.001 546.72C491.428 546.453 490.988 546.093 490.681 545.64C490.374 545.173 490.221 544.64 490.221 544.04C490.221 543.493 490.348 543 490.601 542.56C490.868 542.107 491.294 541.747 491.881 541.48C492.481 541.2 493.281 541.06 494.281 541.06H497.901V542.12H494.321C493.308 542.12 492.601 542.3 492.201 542.66C491.814 543.02 491.621 543.467 491.621 544C491.621 544.6 491.854 545.08 492.321 545.44C492.788 545.8 493.441 545.98 494.281 545.98C495.081 545.98 495.768 545.8 496.341 545.44C496.928 545.067 497.354 544.533 497.621 543.84L497.941 544.82C497.674 545.513 497.208 546.067 496.541 546.48C495.888 546.893 495.061 547.1 494.061 547.1ZM506.218 547.1C505.231 547.1 504.471 546.833 503.938 546.3C503.405 545.767 503.138 545.013 503.138 544.04V534.18H504.558V543.96C504.558 544.573 504.711 545.047 505.018 545.38C505.338 545.713 505.791 545.88 506.378 545.88C507.005 545.88 507.525 545.7 507.938 545.34L508.438 546.36C508.158 546.613 507.818 546.8 507.418 546.92C507.031 547.04 506.631 547.1 506.218 547.1ZM501.258 537.68V536.5H507.758V537.68H501.258ZM511.023 547V536.5H512.443V547H511.023ZM511.743 534.18C511.45 534.18 511.203 534.08 511.003 533.88C510.803 533.68 510.703 533.44 510.703 533.16C510.703 532.88 510.803 532.647 511.003 532.46C511.203 532.26 511.45 532.16 511.743 532.16C512.036 532.16 512.283 532.253 512.483 532.44C512.683 532.627 512.783 532.86 512.783 533.14C512.783 533.433 512.683 533.68 512.483 533.88C512.296 534.08 512.05 534.18 511.743 534.18ZM521.754 536.4C522.607 536.4 523.354 536.567 523.994 536.9C524.647 537.22 525.154 537.713 525.514 538.38C525.887 539.047 526.074 539.887 526.074 540.9V547H524.654V541.04C524.654 539.933 524.374 539.1 523.814 538.54C523.267 537.967 522.494 537.68 521.494 537.68C520.747 537.68 520.094 537.833 519.534 538.14C518.987 538.433 518.561 538.867 518.254 539.44C517.961 540 517.814 540.68 517.814 541.48V547H516.394V536.5H517.754V539.38L517.534 538.84C517.867 538.08 518.401 537.487 519.134 537.06C519.867 536.62 520.741 536.4 521.754 536.4ZM534.39 550.98C533.43 550.98 532.51 550.84 531.63 550.56C530.75 550.28 530.036 549.88 529.49 549.36L530.21 548.28C530.703 548.72 531.31 549.067 532.03 549.32C532.763 549.587 533.536 549.72 534.35 549.72C535.683 549.72 536.663 549.407 537.29 548.78C537.916 548.167 538.23 547.207 538.23 545.9V543.28L538.43 541.48L538.29 539.68V536.5H539.65V545.72C539.65 547.533 539.203 548.86 538.31 549.7C537.43 550.553 536.123 550.98 534.39 550.98ZM534.13 546.6C533.13 546.6 532.23 546.387 531.43 545.96C530.63 545.52 529.996 544.913 529.53 544.14C529.076 543.367 528.85 542.48 528.85 541.48C528.85 540.48 529.076 539.6 529.53 538.84C529.996 538.067 530.63 537.467 531.43 537.04C532.23 536.613 533.13 536.4 534.13 536.4C535.063 536.4 535.903 536.593 536.65 536.98C537.396 537.367 537.99 537.94 538.43 538.7C538.87 539.46 539.09 540.387 539.09 541.48C539.09 542.573 538.87 543.5 538.43 544.26C537.99 545.02 537.396 545.6 536.65 546C535.903 546.4 535.063 546.6 534.13 546.6ZM534.27 545.34C535.043 545.34 535.73 545.18 536.33 544.86C536.93 544.527 537.403 544.073 537.75 543.5C538.096 542.913 538.27 542.24 538.27 541.48C538.27 540.72 538.096 540.053 537.75 539.48C537.403 538.907 536.93 538.46 536.33 538.14C535.73 537.807 535.043 537.64 534.27 537.64C533.51 537.64 532.823 537.807 532.21 538.14C531.61 538.46 531.136 538.907 530.79 539.48C530.456 540.053 530.29 540.72 530.29 541.48C530.29 542.24 530.456 542.913 530.79 543.5C531.136 544.073 531.61 544.527 532.21 544.86C532.823 545.18 533.51 545.34 534.27 545.34Z" fill="#F8FAFC"/>
<path d="M40.2255 562H98.2847C99.1402 562 99.9606 562.369 100.566 563.025C101.17 563.681 101.51 564.572 101.51 565.5V586.5C101.51 587.428 101.17 588.319 100.566 588.975C99.9606 589.631 99.1402 590 98.2847 590H40.2255C39.3701 590 38.5496 589.631 37.9447 588.975C37.3398 588.319 37 587.428 37 586.5V565.5C37 564.572 37.3398 563.681 37.9447 563.025C38.5496 562.369 39.3701 562 40.2255 562Z" fill="#06B6D4"/>
<path d="M60.9772 578.667V577.337L64.0837 574.461C64.3479 574.205 64.5695 573.975 64.7485 573.77C64.9303 573.566 65.0681 573.366 65.1619 573.17C65.2556 572.971 65.3025 572.756 65.3025 572.526C65.3025 572.27 65.2443 572.05 65.1278 571.866C65.0113 571.678 64.8522 571.535 64.6505 571.435C64.4488 571.333 64.2201 571.282 63.9644 571.282C63.6974 571.282 63.4644 571.336 63.2656 571.444C63.0667 571.552 62.9133 571.707 62.8053 571.908C62.6974 572.11 62.6434 572.35 62.6434 572.628H60.892C60.892 572.057 61.0212 571.562 61.2798 571.141C61.5383 570.721 61.9005 570.395 62.3664 570.165C62.8323 569.935 63.3693 569.82 63.9772 569.82C64.6022 569.82 65.1462 569.931 65.6093 570.153C66.0752 570.371 66.4374 570.675 66.696 571.064C66.9545 571.454 67.0837 571.9 67.0837 572.403C67.0837 572.732 67.0184 573.057 66.8877 573.378C66.7599 573.699 66.5312 574.056 66.2016 574.448C65.8721 574.837 65.4076 575.305 64.8082 575.85L63.534 577.099V577.158H67.1988V578.667H60.9772ZM71.9577 578.859C71.2247 578.856 70.594 578.675 70.0656 578.317C69.5401 577.959 69.1352 577.441 68.8511 576.762C68.5699 576.083 68.4307 575.266 68.4335 574.312C68.4335 573.36 68.5742 572.549 68.8554 571.878C69.1395 571.208 69.5443 570.698 70.0699 570.349C70.5983 569.996 71.2276 569.82 71.9577 569.82C72.6878 569.82 73.3156 569.996 73.8412 570.349C74.3696 570.701 74.7759 571.212 75.06 571.883C75.344 572.55 75.4847 573.36 75.4818 574.312C75.4818 575.269 75.3398 576.087 75.0557 576.766C74.7744 577.445 74.371 577.964 73.8455 578.322C73.3199 578.68 72.6906 578.859 71.9577 578.859ZM71.9577 577.329C72.4577 577.329 72.8568 577.077 73.1551 576.574C73.4534 576.072 73.6011 575.317 73.5983 574.312C73.5983 573.65 73.5301 573.099 73.3938 572.658C73.2602 572.218 73.0699 571.887 72.8227 571.665C72.5784 571.444 72.2901 571.333 71.9577 571.333C71.4605 571.333 71.0628 571.582 70.7645 572.079C70.4662 572.576 70.3156 573.32 70.3128 574.312C70.3128 574.982 70.3796 575.542 70.5131 575.991C70.6494 576.437 70.8412 576.772 71.0884 576.996C71.3355 577.218 71.6253 577.329 71.9577 577.329Z" fill="black"/>
<path d="M243.226 562H301.285C302.14 562 302.961 562.369 303.566 563.025C304.17 563.681 304.51 564.572 304.51 565.5V586.5C304.51 587.428 304.17 588.319 303.566 588.975C302.961 589.631 302.14 590 301.285 590H243.226C242.37 590 241.55 589.631 240.945 588.975C240.34 588.319 240 587.428 240 586.5V565.5C240 564.572 240.34 563.681 240.945 563.025C241.55 562.369 242.37 562 243.226 562Z" fill="#EFD03A"/>
<path d="M265.517 573.466V572.013L269.16 566.273H270.413V568.284H269.672L267.375 571.919V571.987H272.552V573.466H265.517ZM269.706 575V573.023L269.74 572.379V566.273H271.47V575H269.706ZM277.204 575.192C276.471 575.189 275.84 575.009 275.312 574.651C274.786 574.293 274.381 573.774 274.097 573.095C273.816 572.416 273.677 571.599 273.68 570.645C273.68 569.693 273.82 568.882 274.101 568.212C274.386 567.541 274.79 567.031 275.316 566.682C275.844 566.33 276.474 566.153 277.204 566.153C277.934 566.153 278.562 566.33 279.087 566.682C279.616 567.034 280.022 567.545 280.306 568.216C280.59 568.884 280.731 569.693 280.728 570.645C280.728 571.602 280.586 572.42 280.302 573.099C280.021 573.778 279.617 574.297 279.092 574.655C278.566 575.013 277.937 575.192 277.204 575.192ZM277.204 573.662C277.704 573.662 278.103 573.411 278.401 572.908C278.699 572.405 278.847 571.651 278.844 570.645C278.844 569.983 278.776 569.432 278.64 568.991C278.506 568.551 278.316 568.22 278.069 567.999C277.824 567.777 277.536 567.666 277.204 567.666C276.707 567.666 276.309 567.915 276.011 568.412C275.712 568.909 275.562 569.653 275.559 570.645C275.559 571.315 275.626 571.875 275.759 572.324C275.896 572.77 276.087 573.105 276.334 573.33C276.582 573.551 276.871 573.662 277.204 573.662Z" fill="black"/>
<path d="M457.226 561H515.285C516.14 561 516.961 561.369 517.566 562.025C518.17 562.681 518.51 563.572 518.51 564.5V585.5C518.51 586.428 518.17 587.319 517.566 587.975C516.961 588.631 516.14 589 515.285 589H457.226C456.37 589 455.55 588.631 454.945 587.975C454.34 587.319 454 586.428 454 585.5V564.5C454 563.572 454.34 562.681 454.945 562.025C455.55 561.369 456.37 561 457.226 561Z" fill="#03BB00"/>
<path d="M482.104 575.119C481.655 575.116 481.222 575.041 480.804 574.893C480.389 574.746 480.017 574.506 479.688 574.173C479.358 573.841 479.097 573.401 478.904 572.852C478.713 572.304 478.618 571.631 478.618 570.832C478.621 570.099 478.705 569.445 478.87 568.868C479.037 568.288 479.276 567.797 479.586 567.393C479.898 566.99 480.272 566.683 480.706 566.473C481.141 566.26 481.628 566.153 482.168 566.153C482.75 566.153 483.264 566.267 483.711 566.494C484.157 566.719 484.514 567.024 484.784 567.411C485.057 567.797 485.222 568.23 485.279 568.71H483.459C483.388 568.406 483.239 568.168 483.012 567.994C482.784 567.821 482.503 567.734 482.168 567.734C481.6 567.734 481.168 567.982 480.872 568.476C480.58 568.97 480.431 569.642 480.425 570.491H480.485C480.615 570.233 480.791 570.013 481.013 569.831C481.237 569.646 481.492 569.506 481.776 569.409C482.063 569.31 482.365 569.26 482.684 569.26C483.201 569.26 483.661 569.382 484.064 569.626C484.468 569.868 484.786 570.2 485.019 570.624C485.252 571.047 485.368 571.531 485.368 572.077C485.368 572.668 485.23 573.193 484.955 573.653C484.682 574.114 484.3 574.474 483.809 574.736C483.32 574.994 482.752 575.122 482.104 575.119ZM482.095 573.67C482.38 573.67 482.634 573.602 482.858 573.466C483.083 573.33 483.259 573.145 483.387 572.912C483.514 572.679 483.578 572.418 483.578 572.128C483.578 571.838 483.514 571.578 483.387 571.348C483.262 571.118 483.088 570.935 482.867 570.798C482.645 570.662 482.392 570.594 482.108 570.594C481.895 570.594 481.698 570.634 481.516 570.713C481.337 570.793 481.179 570.903 481.043 571.045C480.909 571.187 480.804 571.352 480.728 571.54C480.651 571.724 480.612 571.922 480.612 572.132C480.612 572.413 480.676 572.67 480.804 572.903C480.935 573.136 481.111 573.322 481.333 573.462C481.557 573.601 481.811 573.67 482.095 573.67ZM490.098 575.192C489.365 575.189 488.735 575.009 488.206 574.651C487.681 574.293 487.276 573.774 486.992 573.095C486.711 572.416 486.571 571.599 486.574 570.645C486.574 569.693 486.715 568.882 486.996 568.212C487.28 567.541 487.685 567.031 488.211 566.682C488.739 566.33 489.368 566.153 490.098 566.153C490.828 566.153 491.456 566.33 491.982 566.682C492.51 567.034 492.916 567.545 493.201 568.216C493.485 568.884 493.625 569.693 493.622 570.645C493.622 571.602 493.48 572.42 493.196 573.099C492.915 573.778 492.512 574.297 491.986 574.655C491.461 575.013 490.831 575.192 490.098 575.192ZM490.098 573.662C490.598 573.662 490.997 573.411 491.296 572.908C491.594 572.405 491.742 571.651 491.739 570.645C491.739 569.983 491.671 569.432 491.534 568.991C491.401 568.551 491.211 568.22 490.963 567.999C490.719 567.777 490.431 567.666 490.098 567.666C489.601 567.666 489.203 567.915 488.905 568.412C488.607 568.909 488.456 569.653 488.453 570.645C488.453 571.315 488.52 571.875 488.654 572.324C488.79 572.77 488.982 573.105 489.229 573.33C489.476 573.551 489.766 573.662 490.098 573.662Z" fill="black"/>
<path d="M125.283 292.15C125.619 290.022 127.538 288.455 129.441 288.756L285.763 313.438C287.666 313.739 289.009 315.82 288.673 317.948C288.337 320.076 286.418 321.643 284.515 321.342L128.193 296.66C126.29 296.359 124.923 294.43 125.283 292.15Z" fill="#06B6D4"/>
<path d="M203.501 184.491C205.42 183.513 207.814 184.146 208.689 185.862L280.521 326.837C281.395 328.553 280.5 330.862 278.581 331.84C276.662 332.818 274.267 332.185 273.393 330.469L201.561 189.494C200.686 187.778 201.444 185.538 203.501 184.491Z" fill="#EFD03A"/>
<path d="M336.5 184.491C338.419 185.469 339.314 187.778 338.439 189.494L266.607 330.469C265.733 332.185 263.338 332.818 261.419 331.84C259.5 330.862 258.605 328.553 259.479 326.837L331.311 185.862C332.186 184.146 334.443 183.443 336.5 184.491Z" fill="#03BB00"/>
<path d="M279 315C279 317.387 278.052 319.676 276.364 321.364C274.676 323.051 272.387 324 270 324C267.613 323.999 265.324 323.051 263.636 321.363C261.948 319.676 261 317.386 261 315C261 312.613 261.948 310.323 263.636 308.636C265.324 306.948 267.613 306 270 306C272.387 305.999 274.676 306.948 276.364 308.635C278.052 310.323 279 312.613 279 315Z" fill="#FAC858"/>
<path d="M110.017 474.983C110.955 475.921 111.482 477.192 111.482 478.518C111.482 479.844 110.955 481.116 110.017 482.054C109.079 482.992 107.808 483.518 106.482 483.518C105.155 483.518 103.884 482.992 102.946 482.054C63.1699 442.278 38.8916 389.614 34.4781 333.536C30.0646 277.457 45.8056 221.644 78.8696 176.136C111.934 130.627 160.151 98.4091 214.849 85.2774C269.546 72.1457 327.135 78.9618 377.255 104.5C378.437 105.102 379.331 106.148 379.741 107.41C380.15 108.671 380.042 110.043 379.44 111.225C378.838 112.406 377.792 113.3 376.53 113.71C375.269 114.12 373.897 114.012 372.715 113.41C324.716 88.9529 269.565 82.4254 217.183 95.0013C164.801 107.577 118.624 138.431 86.96 182.014C55.2955 225.596 40.2208 279.047 44.4475 332.751C48.6741 386.456 71.9247 436.89 110.017 474.983Z" fill="#03BB00"/>
<path d="M110.017 474.983C110.955 475.921 111.482 477.192 111.482 478.518C111.482 479.845 110.955 481.116 110.017 482.054C109.079 482.992 107.808 483.518 106.482 483.518C105.156 483.518 103.884 482.992 102.946 482.054C76.5832 455.691 56.8339 423.463 45.3129 388.005C33.792 352.547 30.8264 314.866 36.6587 278.042C42.4909 241.219 56.9555 206.298 78.8698 176.136C100.784 145.973 129.526 121.426 162.745 104.5C163.926 103.898 165.299 103.79 166.56 104.199C167.821 104.609 168.868 105.503 169.47 106.685C170.072 107.866 170.18 109.239 169.77 110.5C169.36 111.761 168.466 112.808 167.285 113.41C135.472 129.619 107.947 153.128 86.96 182.014C65.9734 210.899 52.121 244.342 46.5356 279.607C40.9502 314.872 43.7902 350.958 54.8236 384.915C65.8569 418.872 84.7702 449.736 110.017 474.983Z" fill="#EFD03A"/>
<path d="M110.017 474.983C110.955 475.921 111.482 477.192 111.482 478.518C111.482 479.845 110.955 481.116 110.017 482.054C109.079 482.992 107.808 483.518 106.482 483.518C105.156 483.518 103.884 482.992 102.946 482.054C76.5832 455.691 56.8339 423.463 45.3129 388.005C33.7919 352.547 30.8264 314.866 36.6587 278.042C36.7614 277.394 36.9908 276.772 37.3339 276.212C37.677 275.652 38.127 275.165 38.6582 274.78C39.1894 274.394 39.7914 274.116 40.4299 273.963C41.0683 273.809 41.7307 273.783 42.3793 273.886C43.0278 273.989 43.6497 274.218 44.2096 274.561C44.7694 274.904 45.2562 275.354 45.6422 275.886C46.0281 276.417 46.3057 277.019 46.4589 277.657C46.6122 278.296 46.6383 278.958 46.5355 279.607C40.9501 314.872 43.7902 350.958 54.8235 384.915C65.8568 418.872 84.7702 449.736 110.017 474.983Z" fill="#06B6D4"/>
</svg>
